<?xml version="1.0" encoding="UTF-8"?>
<svg width="170px" height="170px" viewBox="0 0 170 170" version="1.1" xmlns="http://www.w3.org/2000/svg" xmlns:xlink="http://www.w3.org/1999/xlink">
    <title>transparent-bg</title>
    <defs>
        <path d="M85,10 C126.421356,10 160,43.5786438 160,85 C160,126.421356 126.421356,160 85,160 C43.5786438,160 10,126.421356 10,85 C10,43.5786438 43.5786438,10 85,10 Z M89.857961,85.0531558 L89.8591692,148.818296 C108.64183,147.408252 125.163484,137.891234 135.935257,123.756116 L89.857961,85.0531558 Z M78.843961,85.0521558 L33.562094,123.087539 C44.0743885,137.2612 60.3058507,146.938659 78.8443536,148.707788 L78.843961,85.0521558 Z M89.8591692,21.181704 L89.857961,70.6611558 L141.883265,114.359869 C146.431263,105.56619 149,95.5830753 149,85 C149,51.2885389 122.935406,23.6647898 89.8591692,21.181704 Z M21,85 C21,95.2775944 23.4225835,104.989364 27.7278622,113.595421 L78.843961,70.6601558 L78.8443536,21.2922119 C46.3860527,24.389708 21,51.7302389 21,85 Z" id="path-1"></path>
    </defs>
    <g id="Page-1" stroke="none" stroke-width="1" fill="none" fill-rule="evenodd">
        <g id="hippy-logo" transform="translate(-15.000000, -15.000000)">
            <g id="transparent-bg" transform="translate(15.000000, 15.000000)">
                <rect id="bg" x="0" y="0" width="170" height="170"></rect>
                <circle id="椭圆形" fill="#FFFFFF" cx="85" cy="85" r="64"></circle>
                <g id="形状结合">
                    <use fill="#202124" xlink:href="#path-1"></use>
                    <use fill="#000000" xlink:href="#path-1"></use>
                </g>
            </g>
        </g>
    </g>
</svg>